{
	"patcher" : 	{
		"fileversion" : 1,
		"appversion" : 		{
			"major" : 7,
			"minor" : 3,
			"revision" : 3,
			"architecture" : "x86",
			"modernui" : 1
		}
,
		"rect" : [ 29.0, 453.0, 1244.0, 644.0 ],
		"bglocked" : 0,
		"openinpresentation" : 0,
		"default_fontsize" : 12.0,
		"default_fontface" : 0,
		"default_fontname" : "Arial",
		"gridonopen" : 1,
		"gridsize" : [ 15.0, 15.0 ],
		"gridsnaponopen" : 1,
		"objectsnaponopen" : 1,
		"statusbarvisible" : 2,
		"toolbarvisible" : 1,
		"lefttoolbarpinned" : 0,
		"toptoolbarpinned" : 0,
		"righttoolbarpinned" : 0,
		"bottomtoolbarpinned" : 0,
		"toolbars_unpinned_last_save" : 0,
		"tallnewobj" : 0,
		"boxanimatetime" : 200,
		"enablehscroll" : 1,
		"enablevscroll" : 1,
		"devicewidth" : 0.0,
		"description" : "",
		"digest" : "",
		"tags" : "",
		"style" : "",
		"subpatcher_template" : "",
		"boxes" : [ 			{
				"box" : 				{
					"id" : "obj-54",
					"maxclass" : "number",
					"numinlets" : 1,
					"numoutlets" : 2,
					"outlettype" : [ "", "bang" ],
					"parameter_enable" : 0,
					"patching_rect" : [ 504.166687, 885.666687, 50.0, 22.0 ],
					"style" : ""
				}

			}
, 			{
				"box" : 				{
					"fontname" : "Arial",
					"fontsize" : 12.0,
					"id" : "obj-64",
					"maxclass" : "message",
					"numinlets" : 2,
					"numoutlets" : 1,
					"outlettype" : [ "" ],
					"patching_rect" : [ 701.666687, 811.666687, 51.0, 22.0 ],
					"style" : "",
					"text" : "target 0"
				}

			}
, 			{
				"box" : 				{
					"fontname" : "Arial",
					"fontsize" : 12.0,
					"id" : "obj-62",
					"maxclass" : "newobj",
					"numinlets" : 1,
					"numoutlets" : 2,
					"outlettype" : [ "", "bang" ],
					"patching_rect" : [ 686.666687, 781.666687, 33.0, 22.0 ],
					"style" : "",
					"text" : "t s b"
				}

			}
, 			{
				"box" : 				{
					"fontname" : "Arial",
					"fontsize" : 12.0,
					"id" : "obj-55",
					"maxclass" : "newobj",
					"numinlets" : 0,
					"numoutlets" : 1,
					"outlettype" : [ "" ],
					"patching_rect" : [ 686.666687, 751.666687, 59.0, 22.0 ],
					"style" : "",
					"text" : "r intopoly"
				}

			}
, 			{
				"box" : 				{
					"fontname" : "Arial",
					"fontsize" : 12.0,
					"id" : "obj-56",
					"maxclass" : "newobj",
					"numinlets" : 2,
					"numoutlets" : 2,
					"outlettype" : [ "bang", "" ],
					"patching_rect" : [ 476.666656, 721.666687, 52.0, 22.0 ],
					"style" : "",
					"text" : "select 1"
				}

			}
, 			{
				"box" : 				{
					"fontname" : "Arial",
					"fontsize" : 12.0,
					"id" : "obj-57",
					"maxclass" : "newobj",
					"numinlets" : 2,
					"numoutlets" : 1,
					"outlettype" : [ "int" ],
					"patching_rect" : [ 521.666687, 781.666687, 32.5, 22.0 ],
					"style" : "",
					"text" : "i"
				}

			}
, 			{
				"box" : 				{
					"fontname" : "Arial",
					"fontsize" : 12.0,
					"id" : "obj-58",
					"maxclass" : "newobj",
					"numinlets" : 2,
					"numoutlets" : 1,
					"outlettype" : [ "int" ],
					"patching_rect" : [ 536.666687, 751.666687, 34.0, 22.0 ],
					"style" : "",
					"text" : "+ 48"
				}

			}
, 			{
				"box" : 				{
					"fontname" : "Arial",
					"fontsize" : 12.0,
					"id" : "obj-59",
					"maxclass" : "newobj",
					"numinlets" : 1,
					"numoutlets" : 1,
					"outlettype" : [ "" ],
					"patching_rect" : [ 581.666687, 781.666687, 89.0, 22.0 ],
					"style" : "",
					"text" : "prepend target"
				}

			}
, 			{
				"box" : 				{
					"fontname" : "Arial",
					"fontsize" : 12.0,
					"id" : "obj-19",
					"maxclass" : "newobj",
					"numinlets" : 2,
					"numoutlets" : 1,
					"outlettype" : [ "int" ],
					"patching_rect" : [ 581.666687, 751.666687, 32.5, 22.0 ],
					"style" : "",
					"text" : "+ 1"
				}

			}
, 			{
				"box" : 				{
					"fontname" : "Arial",
					"fontsize" : 12.0,
					"id" : "obj-60",
					"maxclass" : "newobj",
					"numinlets" : 1,
					"numoutlets" : 2,
					"outlettype" : [ "int", "int" ],
					"patching_rect" : [ 536.666687, 721.666687, 32.5, 22.0 ],
					"style" : "",
					"text" : "t i i"
				}

			}
, 			{
				"box" : 				{
					"fontname" : "Arial",
					"fontsize" : 12.0,
					"id" : "obj-17",
					"maxclass" : "newobj",
					"numinlets" : 5,
					"numoutlets" : 4,
					"outlettype" : [ "int", "", "", "int" ],
					"patching_rect" : [ 536.666687, 691.666687, 73.0, 22.0 ],
					"style" : "",
					"text" : "counter 15"
				}

			}
, 			{
				"box" : 				{
					"fontname" : "Arial",
					"fontsize" : 12.0,
					"id" : "obj-63",
					"maxclass" : "newobj",
					"numinlets" : 1,
					"numoutlets" : 2,
					"outlettype" : [ "int", "bang" ],
					"patching_rect" : [ 476.666656, 646.666687, 32.5, 22.0 ],
					"style" : "",
					"text" : "t i b"
				}

			}
, 			{
				"box" : 				{
					"fontname" : "Arial",
					"fontsize" : 12.0,
					"id" : "obj-15",
					"maxclass" : "newobj",
					"numinlets" : 2,
					"numoutlets" : 2,
					"outlettype" : [ "", "" ],
					"patching_rect" : [ 476.666656, 616.666687, 49.0, 22.0 ],
					"style" : "",
					"text" : "zl iter 1"
				}

			}
, 			{
				"box" : 				{
					"fontname" : "Arial",
					"fontsize" : 12.0,
					"id" : "obj-65",
					"maxclass" : "newobj",
					"numinlets" : 1,
					"numoutlets" : 0,
					"patching_rect" : [ 581.666687, 841.666687, 111.0, 22.0 ],
					"style" : "",
					"text" : "poly~ saw_note 16"
				}

			}
, 			{
				"box" : 				{
					"columns" : 16,
					"id" : "obj-53",
					"maxclass" : "matrixctrl",
					"numinlets" : 1,
					"numoutlets" : 2,
					"outlettype" : [ "list", "list" ],
					"parameter_enable" : 0,
					"patching_rect" : [ 50.0, 566.333313, 335.0, 274.0 ],
					"rows" : 16,
					"style" : ""
				}

			}
, 			{
				"box" : 				{
					"id" : "obj-51",
					"linecount" : 3,
					"maxclass" : "comment",
					"numinlets" : 1,
					"numoutlets" : 0,
					"patching_rect" : [ 113.0, 266.0, 194.0, 47.0 ],
					"style" : "",
					"text" : "make duration 0 during note off?\n\n\n"
				}

			}
, 			{
				"box" : 				{
					"fontname" : "Arial",
					"fontsize" : 12.0,
					"id" : "obj-47",
					"maxclass" : "newobj",
					"numinlets" : 0,
					"numoutlets" : 1,
					"outlettype" : [ "" ],
					"patching_rect" : [ 439.5, 23.0, 64.0, 22.0 ],
					"style" : "",
					"text" : "r startstop"
				}

			}
, 			{
				"box" : 				{
					"id" : "obj-26",
					"maxclass" : "newobj",
					"numinlets" : 2,
					"numoutlets" : 2,
					"outlettype" : [ "bang", "" ],
					"patching_rect" : [ 1071.0, 414.0, 36.0, 22.0 ],
					"style" : "",
					"text" : "sel 1"
				}

			}
, 			{
				"box" : 				{
					"id" : "obj-28",
					"maxclass" : "newobj",
					"numinlets" : 1,
					"numoutlets" : 1,
					"outlettype" : [ "signal" ],
					"patcher" : 					{
						"fileversion" : 1,
						"appversion" : 						{
							"major" : 7,
							"minor" : 3,
							"revision" : 3,
							"architecture" : "x86",
							"modernui" : 1
						}
,
						"rect" : [ 59.0, 103.0, 640.0, 480.0 ],
						"bglocked" : 0,
						"openinpresentation" : 0,
						"default_fontsize" : 12.0,
						"default_fontface" : 0,
						"default_fontname" : "Arial",
						"gridonopen" : 1,
						"gridsize" : [ 15.0, 15.0 ],
						"gridsnaponopen" : 1,
						"objectsnaponopen" : 1,
						"statusbarvisible" : 2,
						"toolbarvisible" : 1,
						"lefttoolbarpinned" : 0,
						"toptoolbarpinned" : 0,
						"righttoolbarpinned" : 0,
						"bottomtoolbarpinned" : 0,
						"toolbars_unpinned_last_save" : 0,
						"tallnewobj" : 0,
						"boxanimatetime" : 200,
						"enablehscroll" : 1,
						"enablevscroll" : 1,
						"devicewidth" : 0.0,
						"description" : "",
						"digest" : "",
						"tags" : "",
						"style" : "",
						"subpatcher_template" : "",
						"boxes" : [ 							{
								"box" : 								{
									"comment" : "",
									"id" : "obj-2",
									"index" : 1,
									"maxclass" : "outlet",
									"numinlets" : 1,
									"numoutlets" : 0,
									"patching_rect" : [ 163.0, 503.0, 30.0, 30.0 ],
									"style" : ""
								}

							}
, 							{
								"box" : 								{
									"comment" : "",
									"id" : "obj-1",
									"index" : 1,
									"maxclass" : "inlet",
									"numinlets" : 0,
									"numoutlets" : 1,
									"outlettype" : [ "bang" ],
									"patching_rect" : [ 101.0, 244.0, 30.0, 30.0 ],
									"style" : ""
								}

							}
, 							{
								"box" : 								{
									"id" : "obj-19",
									"maxclass" : "newobj",
									"numinlets" : 2,
									"numoutlets" : 1,
									"outlettype" : [ "signal" ],
									"patching_rect" : [ 77.0, 333.0, 69.0, 22.0 ],
									"style" : "",
									"text" : "cycle~ 990"
								}

							}
, 							{
								"box" : 								{
									"id" : "obj-18",
									"maxclass" : "newobj",
									"numinlets" : 2,
									"numoutlets" : 1,
									"outlettype" : [ "signal" ],
									"patching_rect" : [ 173.0, 444.0, 29.5, 22.0 ],
									"style" : "",
									"text" : "*~"
								}

							}
, 							{
								"box" : 								{
									"id" : "obj-17",
									"maxclass" : "newobj",
									"numinlets" : 2,
									"numoutlets" : 2,
									"outlettype" : [ "signal", "bang" ],
									"patching_rect" : [ 257.333344, 400.0, 36.0, 22.0 ],
									"style" : "",
									"text" : "line~"
								}

							}
, 							{
								"box" : 								{
									"addpoints" : [ 0.0, 0.693333, 0, 170.212769, 0.0, 0, 627.659546, 0.0, 0, 1000.0, 0.0, 0, 1000.0, 0.0, 0 ],
									"id" : "obj-13",
									"maxclass" : "function",
									"numinlets" : 1,
									"numoutlets" : 4,
									"outlettype" : [ "float", "", "", "bang" ],
									"parameter_enable" : 0,
									"patching_rect" : [ 197.0, 275.0, 200.0, 100.0 ],
									"style" : ""
								}

							}
 ],
						"lines" : [ 							{
								"patchline" : 								{
									"destination" : [ "obj-13", 0 ],
									"disabled" : 0,
									"hidden" : 0,
									"source" : [ "obj-1", 0 ]
								}

							}
, 							{
								"patchline" : 								{
									"destination" : [ "obj-17", 0 ],
									"disabled" : 0,
									"hidden" : 0,
									"source" : [ "obj-13", 1 ]
								}

							}
, 							{
								"patchline" : 								{
									"destination" : [ "obj-18", 1 ],
									"disabled" : 0,
									"hidden" : 0,
									"midpoints" : [ 203.0, 449.0 ],
									"source" : [ "obj-17", 0 ]
								}

							}
, 							{
								"patchline" : 								{
									"destination" : [ "obj-2", 0 ],
									"disabled" : 0,
									"hidden" : 0,
									"source" : [ "obj-18", 0 ]
								}

							}
, 							{
								"patchline" : 								{
									"destination" : [ "obj-18", 0 ],
									"disabled" : 0,
									"hidden" : 0,
									"source" : [ "obj-19", 0 ]
								}

							}
 ]
					}
,
					"patching_rect" : [ 1071.0, 461.0, 51.0, 22.0 ],
					"saved_object_attributes" : 					{
						"description" : "",
						"digest" : "",
						"globalpatchername" : "",
						"style" : "",
						"tags" : ""
					}
,
					"style" : "",
					"text" : "p snare"
				}

			}
, 			{
				"box" : 				{
					"id" : "obj-24",
					"maxclass" : "newobj",
					"numinlets" : 2,
					"numoutlets" : 2,
					"outlettype" : [ "bang", "" ],
					"patching_rect" : [ 1170.0, 390.0, 36.0, 22.0 ],
					"style" : "",
					"text" : "sel 1"
				}

			}
, 			{
				"box" : 				{
					"id" : "obj-30",
					"maxclass" : "newobj",
					"numinlets" : 1,
					"numoutlets" : 1,
					"outlettype" : [ "signal" ],
					"patcher" : 					{
						"fileversion" : 1,
						"appversion" : 						{
							"major" : 7,
							"minor" : 3,
							"revision" : 3,
							"architecture" : "x86",
							"modernui" : 1
						}
,
						"rect" : [ 59.0, 103.0, 640.0, 480.0 ],
						"bglocked" : 0,
						"openinpresentation" : 0,
						"default_fontsize" : 12.0,
						"default_fontface" : 0,
						"default_fontname" : "Arial",
						"gridonopen" : 1,
						"gridsize" : [ 15.0, 15.0 ],
						"gridsnaponopen" : 1,
						"objectsnaponopen" : 1,
						"statusbarvisible" : 2,
						"toolbarvisible" : 1,
						"lefttoolbarpinned" : 0,
						"toptoolbarpinned" : 0,
						"righttoolbarpinned" : 0,
						"bottomtoolbarpinned" : 0,
						"toolbars_unpinned_last_save" : 0,
						"tallnewobj" : 0,
						"boxanimatetime" : 200,
						"enablehscroll" : 1,
						"enablevscroll" : 1,
						"devicewidth" : 0.0,
						"description" : "",
						"digest" : "",
						"tags" : "",
						"style" : "",
						"subpatcher_template" : "",
						"boxes" : [ 							{
								"box" : 								{
									"comment" : "",
									"id" : "obj-2",
									"index" : 1,
									"maxclass" : "outlet",
									"numinlets" : 1,
									"numoutlets" : 0,
									"patching_rect" : [ 163.0, 503.0, 30.0, 30.0 ],
									"style" : ""
								}

							}
, 							{
								"box" : 								{
									"comment" : "",
									"id" : "obj-1",
									"index" : 1,
									"maxclass" : "inlet",
									"numinlets" : 0,
									"numoutlets" : 1,
									"outlettype" : [ "bang" ],
									"patching_rect" : [ 101.0, 244.0, 30.0, 30.0 ],
									"style" : ""
								}

							}
, 							{
								"box" : 								{
									"id" : "obj-19",
									"maxclass" : "newobj",
									"numinlets" : 1,
									"numoutlets" : 1,
									"outlettype" : [ "signal" ],
									"patching_rect" : [ 77.0, 333.0, 46.0, 22.0 ],
									"style" : "",
									"text" : "noise~"
								}

							}
, 							{
								"box" : 								{
									"id" : "obj-18",
									"maxclass" : "newobj",
									"numinlets" : 2,
									"numoutlets" : 1,
									"outlettype" : [ "signal" ],
									"patching_rect" : [ 173.0, 444.0, 29.5, 22.0 ],
									"style" : "",
									"text" : "*~"
								}

							}
, 							{
								"box" : 								{
									"id" : "obj-17",
									"maxclass" : "newobj",
									"numinlets" : 2,
									"numoutlets" : 2,
									"outlettype" : [ "signal", "bang" ],
									"patching_rect" : [ 257.333344, 400.0, 36.0, 22.0 ],
									"style" : "",
									"text" : "line~"
								}

							}
, 							{
								"box" : 								{
									"addpoints" : [ 0.0, 1.0, 0, 15.957447, 0.0, 0, 398.936157, 0.0, 0, 473.404266, 0.0, 0 ],
									"id" : "obj-13",
									"maxclass" : "function",
									"numinlets" : 1,
									"numoutlets" : 4,
									"outlettype" : [ "float", "", "", "bang" ],
									"parameter_enable" : 0,
									"patching_rect" : [ 197.0, 275.0, 200.0, 100.0 ],
									"style" : ""
								}

							}
 ],
						"lines" : [ 							{
								"patchline" : 								{
									"destination" : [ "obj-13", 0 ],
									"disabled" : 0,
									"hidden" : 0,
									"source" : [ "obj-1", 0 ]
								}

							}
, 							{
								"patchline" : 								{
									"destination" : [ "obj-17", 0 ],
									"disabled" : 0,
									"hidden" : 0,
									"source" : [ "obj-13", 1 ]
								}

							}
, 							{
								"patchline" : 								{
									"destination" : [ "obj-18", 1 ],
									"disabled" : 0,
									"hidden" : 0,
									"midpoints" : [ 203.0, 449.0 ],
									"source" : [ "obj-17", 0 ]
								}

							}
, 							{
								"patchline" : 								{
									"destination" : [ "obj-2", 0 ],
									"disabled" : 0,
									"hidden" : 0,
									"source" : [ "obj-18", 0 ]
								}

							}
, 							{
								"patchline" : 								{
									"destination" : [ "obj-18", 0 ],
									"disabled" : 0,
									"hidden" : 0,
									"source" : [ "obj-19", 0 ]
								}

							}
 ]
					}
,
					"patching_rect" : [ 1109.0, 545.0, 50.0, 22.0 ],
					"saved_object_attributes" : 					{
						"description" : "",
						"digest" : "",
						"globalpatchername" : "",
						"style" : "",
						"tags" : ""
					}
,
					"style" : "",
					"text" : "p hithat"
				}

			}
, 			{
				"box" : 				{
					"id" : "obj-31",
					"maxclass" : "newobj",
					"numinlets" : 2,
					"numoutlets" : 2,
					"outlettype" : [ "bang", "" ],
					"patching_rect" : [ 989.333374, 414.0, 36.0, 22.0 ],
					"style" : "",
					"text" : "sel 1"
				}

			}
, 			{
				"box" : 				{
					"id" : "obj-22",
					"maxclass" : "newobj",
					"numinlets" : 1,
					"numoutlets" : 1,
					"outlettype" : [ "signal" ],
					"patcher" : 					{
						"fileversion" : 1,
						"appversion" : 						{
							"major" : 7,
							"minor" : 3,
							"revision" : 3,
							"architecture" : "x86",
							"modernui" : 1
						}
,
						"rect" : [ 59.0, 103.0, 640.0, 480.0 ],
						"bglocked" : 0,
						"openinpresentation" : 0,
						"default_fontsize" : 12.0,
						"default_fontface" : 0,
						"default_fontname" : "Arial",
						"gridonopen" : 1,
						"gridsize" : [ 15.0, 15.0 ],
						"gridsnaponopen" : 1,
						"objectsnaponopen" : 1,
						"statusbarvisible" : 2,
						"toolbarvisible" : 1,
						"lefttoolbarpinned" : 0,
						"toptoolbarpinned" : 0,
						"righttoolbarpinned" : 0,
						"bottomtoolbarpinned" : 0,
						"toolbars_unpinned_last_save" : 0,
						"tallnewobj" : 0,
						"boxanimatetime" : 200,
						"enablehscroll" : 1,
						"enablevscroll" : 1,
						"devicewidth" : 0.0,
						"description" : "",
						"digest" : "",
						"tags" : "",
						"style" : "",
						"subpatcher_template" : "",
						"boxes" : [ 							{
								"box" : 								{
									"comment" : "",
									"id" : "obj-2",
									"index" : 1,
									"maxclass" : "outlet",
									"numinlets" : 1,
									"numoutlets" : 0,
									"patching_rect" : [ 163.0, 503.0, 30.0, 30.0 ],
									"style" : ""
								}

							}
, 							{
								"box" : 								{
									"comment" : "",
									"id" : "obj-1",
									"index" : 1,
									"maxclass" : "inlet",
									"numinlets" : 0,
									"numoutlets" : 1,
									"outlettype" : [ "bang" ],
									"patching_rect" : [ 101.0, 244.0, 30.0, 30.0 ],
									"style" : ""
								}

							}
, 							{
								"box" : 								{
									"id" : "obj-19",
									"maxclass" : "newobj",
									"numinlets" : 1,
									"numoutlets" : 1,
									"outlettype" : [ "signal" ],
									"patching_rect" : [ 77.0, 333.0, 46.0, 22.0 ],
									"style" : "",
									"text" : "noise~"
								}

							}
, 							{
								"box" : 								{
									"id" : "obj-18",
									"maxclass" : "newobj",
									"numinlets" : 2,
									"numoutlets" : 1,
									"outlettype" : [ "signal" ],
									"patching_rect" : [ 173.0, 444.0, 29.5, 22.0 ],
									"style" : "",
									"text" : "*~"
								}

							}
, 							{
								"box" : 								{
									"id" : "obj-17",
									"maxclass" : "newobj",
									"numinlets" : 2,
									"numoutlets" : 2,
									"outlettype" : [ "signal", "bang" ],
									"patching_rect" : [ 257.333344, 400.0, 36.0, 22.0 ],
									"style" : "",
									"text" : "line~"
								}

							}
, 							{
								"box" : 								{
									"addpoints" : [ 0.0, 0.72, 0, 0.0, 0.733333, 0, 63.829788, 0.52, 0, 196.808517, 0.0, 0, 398.936157, 0.0, 2, 398.936157, 0.0, 0, 473.404266, 0.0, 0 ],
									"id" : "obj-13",
									"maxclass" : "function",
									"numinlets" : 1,
									"numoutlets" : 4,
									"outlettype" : [ "float", "", "", "bang" ],
									"parameter_enable" : 0,
									"patching_rect" : [ 197.0, 275.0, 200.0, 100.0 ],
									"style" : ""
								}

							}
 ],
						"lines" : [ 							{
								"patchline" : 								{
									"destination" : [ "obj-13", 0 ],
									"disabled" : 0,
									"hidden" : 0,
									"source" : [ "obj-1", 0 ]
								}

							}
, 							{
								"patchline" : 								{
									"destination" : [ "obj-17", 0 ],
									"disabled" : 0,
									"hidden" : 0,
									"source" : [ "obj-13", 1 ]
								}

							}
, 							{
								"patchline" : 								{
									"destination" : [ "obj-18", 1 ],
									"disabled" : 0,
									"hidden" : 0,
									"midpoints" : [ 203.0, 449.0 ],
									"source" : [ "obj-17", 0 ]
								}

							}
, 							{
								"patchline" : 								{
									"destination" : [ "obj-2", 0 ],
									"disabled" : 0,
									"hidden" : 0,
									"source" : [ "obj-18", 0 ]
								}

							}
, 							{
								"patchline" : 								{
									"destination" : [ "obj-18", 0 ],
									"disabled" : 0,
									"hidden" : 0,
									"source" : [ "obj-19", 0 ]
								}

							}
 ]
					}
,
					"patching_rect" : [ 989.333374, 461.0, 51.0, 22.0 ],
					"saved_object_attributes" : 					{
						"description" : "",
						"digest" : "",
						"globalpatchername" : "",
						"style" : "",
						"tags" : ""
					}
,
					"style" : "",
					"text" : "p snare"
				}

			}
, 			{
				"box" : 				{
					"id" : "obj-36",
					"maxclass" : "newobj",
					"numinlets" : 1,
					"numoutlets" : 1,
					"outlettype" : [ "signal" ],
					"patcher" : 					{
						"fileversion" : 1,
						"appversion" : 						{
							"major" : 7,
							"minor" : 3,
							"revision" : 3,
							"architecture" : "x86",
							"modernui" : 1
						}
,
						"rect" : [ 59.0, 103.0, 653.0, 422.0 ],
						"bglocked" : 0,
						"openinpresentation" : 0,
						"default_fontsize" : 12.0,
						"default_fontface" : 0,
						"default_fontname" : "Arial",
						"gridonopen" : 1,
						"gridsize" : [ 15.0, 15.0 ],
						"gridsnaponopen" : 1,
						"objectsnaponopen" : 1,
						"statusbarvisible" : 2,
						"toolbarvisible" : 1,
						"lefttoolbarpinned" : 0,
						"toptoolbarpinned" : 0,
						"righttoolbarpinned" : 0,
						"bottomtoolbarpinned" : 0,
						"toolbars_unpinned_last_save" : 0,
						"tallnewobj" : 0,
						"boxanimatetime" : 200,
						"enablehscroll" : 1,
						"enablevscroll" : 1,
						"devicewidth" : 0.0,
						"description" : "",
						"digest" : "",
						"tags" : "",
						"style" : "",
						"subpatcher_template" : "",
						"boxes" : [ 							{
								"box" : 								{
									"id" : "obj-3",
									"maxclass" : "newobj",
									"numinlets" : 2,
									"numoutlets" : 1,
									"outlettype" : [ "signal" ],
									"patching_rect" : [ 470.0, 307.0, 88.0, 22.0 ],
									"style" : "",
									"text" : "samplervoice~"
								}

							}
, 							{
								"box" : 								{
									"comment" : "",
									"id" : "obj-2",
									"index" : 1,
									"maxclass" : "outlet",
									"numinlets" : 1,
									"numoutlets" : 0,
									"patching_rect" : [ 163.0, 503.0, 30.0, 30.0 ],
									"style" : ""
								}

							}
, 							{
								"box" : 								{
									"comment" : "",
									"id" : "obj-1",
									"index" : 1,
									"maxclass" : "inlet",
									"numinlets" : 0,
									"numoutlets" : 1,
									"outlettype" : [ "bang" ],
									"patching_rect" : [ 101.0, 244.0, 30.0, 30.0 ],
									"style" : ""
								}

							}
, 							{
								"box" : 								{
									"id" : "obj-19",
									"maxclass" : "newobj",
									"numinlets" : 2,
									"numoutlets" : 1,
									"outlettype" : [ "signal" ],
									"patching_rect" : [ 77.0, 333.0, 71.0, 22.0 ],
									"style" : "",
									"text" : "phasor~ 50"
								}

							}
, 							{
								"box" : 								{
									"id" : "obj-18",
									"maxclass" : "newobj",
									"numinlets" : 2,
									"numoutlets" : 1,
									"outlettype" : [ "signal" ],
									"patching_rect" : [ 173.0, 444.0, 29.5, 22.0 ],
									"style" : "",
									"text" : "*~"
								}

							}
, 							{
								"box" : 								{
									"id" : "obj-17",
									"maxclass" : "newobj",
									"numinlets" : 2,
									"numoutlets" : 2,
									"outlettype" : [ "signal", "bang" ],
									"patching_rect" : [ 257.333344, 400.0, 36.0, 22.0 ],
									"style" : "",
									"text" : "line~"
								}

							}
, 							{
								"box" : 								{
									"addpoints" : [ 0.0, 1.0, 0, 180.850983, 0.0, 0, 398.936157, 0.0, 0, 473.404266, 0.0, 0 ],
									"id" : "obj-13",
									"maxclass" : "function",
									"numinlets" : 1,
									"numoutlets" : 4,
									"outlettype" : [ "float", "", "", "bang" ],
									"parameter_enable" : 0,
									"patching_rect" : [ 197.000015, 263.0, 200.0, 100.0 ],
									"style" : ""
								}

							}
 ],
						"lines" : [ 							{
								"patchline" : 								{
									"destination" : [ "obj-13", 0 ],
									"disabled" : 0,
									"hidden" : 0,
									"source" : [ "obj-1", 0 ]
								}

							}
, 							{
								"patchline" : 								{
									"destination" : [ "obj-17", 0 ],
									"disabled" : 0,
									"hidden" : 0,
									"source" : [ "obj-13", 1 ]
								}

							}
, 							{
								"patchline" : 								{
									"destination" : [ "obj-18", 1 ],
									"disabled" : 0,
									"hidden" : 0,
									"midpoints" : [ 203.0, 449.0 ],
									"source" : [ "obj-17", 0 ]
								}

							}
, 							{
								"patchline" : 								{
									"destination" : [ "obj-2", 0 ],
									"disabled" : 0,
									"hidden" : 0,
									"source" : [ "obj-18", 0 ]
								}

							}
, 							{
								"patchline" : 								{
									"destination" : [ "obj-18", 0 ],
									"disabled" : 0,
									"hidden" : 0,
									"source" : [ "obj-19", 0 ]
								}

							}
, 							{
								"patchline" : 								{
									"destination" : [ "obj-18", 0 ],
									"disabled" : 0,
									"hidden" : 0,
									"source" : [ "obj-3", 0 ]
								}

							}
 ]
					}
,
					"patching_rect" : [ 933.0, 458.0, 46.0, 22.0 ],
					"saved_object_attributes" : 					{
						"description" : "",
						"digest" : "",
						"globalpatchername" : "",
						"style" : "",
						"tags" : ""
					}
,
					"style" : "",
					"text" : "p bass"
				}

			}
, 			{
				"box" : 				{
					"id" : "obj-38",
					"maxclass" : "newobj",
					"numinlets" : 2,
					"numoutlets" : 2,
					"outlettype" : [ "bang", "" ],
					"patching_rect" : [ 933.0, 426.0, 36.0, 22.0 ],
					"style" : "",
					"text" : "sel 1"
				}

			}
, 			{
				"box" : 				{
					"fontname" : "Arial",
					"fontsize" : 24.0,
					"format" : 6,
					"id" : "obj-42",
					"maxclass" : "flonum",
					"maximum" : 350.0,
					"minimum" : 30.0,
					"numinlets" : 1,
					"numoutlets" : 2,
					"outlettype" : [ "", "bang" ],
					"parameter_enable" : 0,
					"patching_rect" : [ 749.0, 65.0, 66.0, 35.0 ],
					"style" : ""
				}

			}
, 			{
				"box" : 				{
					"fontface" : 0,
					"fontname" : "Arial",
					"fontsize" : 12.0,
					"id" : "obj-40",
					"maxclass" : "newobj",
					"numinlets" : 4,
					"numoutlets" : 1,
					"outlettype" : [ "int" ],
					"patching_rect" : [ 664.0, 115.0, 94.0, 22.0 ],
					"style" : "",
					"text" : "tempo 120 1 16"
				}

			}
, 			{
				"box" : 				{
					"id" : "obj-131",
					"maxclass" : "ezdac~",
					"numinlets" : 2,
					"numoutlets" : 0,
					"patching_rect" : [ 1024.333374, 538.333313, 45.0, 45.0 ],
					"style" : ""
				}

			}
, 			{
				"box" : 				{
					"fontname" : "Arial",
					"fontsize" : 12.0,
					"id" : "obj-116",
					"maxclass" : "comment",
					"numinlets" : 1,
					"numoutlets" : 0,
					"patching_rect" : [ 963.0, 300.0, 71.0, 20.0 ],
					"style" : "",
					"text" : "Hi Hat"
				}

			}
, 			{
				"box" : 				{
					"fontname" : "Arial",
					"fontsize" : 12.0,
					"id" : "obj-114",
					"maxclass" : "comment",
					"numinlets" : 1,
					"numoutlets" : 0,
					"patching_rect" : [ 963.0, 268.0, 71.0, 20.0 ],
					"style" : "",
					"text" : "Cowbell"
				}

			}
, 			{
				"box" : 				{
					"fontname" : "Arial",
					"fontsize" : 12.0,
					"id" : "obj-112",
					"maxclass" : "comment",
					"numinlets" : 1,
					"numoutlets" : 0,
					"patching_rect" : [ 963.0, 236.0, 71.0, 20.0 ],
					"style" : "",
					"text" : "Snare"
				}

			}
, 			{
				"box" : 				{
					"fontname" : "Arial",
					"fontsize" : 12.0,
					"id" : "obj-110",
					"maxclass" : "comment",
					"numinlets" : 1,
					"numoutlets" : 0,
					"patching_rect" : [ 963.0, 205.0, 71.0, 20.0 ],
					"style" : "",
					"text" : "Kick"
				}

			}
, 			{
				"box" : 				{
					"id" : "obj-104",
					"maxclass" : "toggle",
					"numinlets" : 1,
					"numoutlets" : 1,
					"outlettype" : [ "int" ],
					"parameter_enable" : 0,
					"patching_rect" : [ 1044.0, 374.0, 20.0, 20.0 ],
					"style" : ""
				}

			}
, 			{
				"box" : 				{
					"id" : "obj-103",
					"maxclass" : "toggle",
					"numinlets" : 1,
					"numoutlets" : 1,
					"outlettype" : [ "int" ],
					"parameter_enable" : 0,
					"patching_rect" : [ 1170.0, 341.0, 20.0, 20.0 ],
					"style" : ""
				}

			}
, 			{
				"box" : 				{
					"id" : "obj-102",
					"maxclass" : "toggle",
					"numinlets" : 1,
					"numoutlets" : 1,
					"outlettype" : [ "int" ],
					"parameter_enable" : 0,
					"patching_rect" : [ 1019.333374, 374.0, 20.0, 20.0 ],
					"style" : ""
				}

			}
, 			{
				"box" : 				{
					"id" : "obj-95",
					"maxclass" : "toggle",
					"numinlets" : 1,
					"numoutlets" : 1,
					"outlettype" : [ "int" ],
					"parameter_enable" : 0,
					"patching_rect" : [ 997.333374, 374.0, 20.0, 20.0 ],
					"style" : ""
				}

			}
, 			{
				"box" : 				{
					"fontname" : "Arial",
					"fontsize" : 12.0,
					"id" : "obj-39",
					"maxclass" : "message",
					"numinlets" : 2,
					"numoutlets" : 1,
					"outlettype" : [ "" ],
					"patching_rect" : [ 940.0, 343.0, 47.0, 22.0 ],
					"style" : "",
					"text" : "0 0 0 0"
				}

			}
, 			{
				"box" : 				{
					"fontname" : "Arial",
					"fontsize" : 12.0,
					"id" : "obj-41",
					"maxclass" : "newobj",
					"numinlets" : 1,
					"numoutlets" : 4,
					"outlettype" : [ "int", "int", "int", "int" ],
					"patching_rect" : [ 996.0, 341.0, 89.0, 22.0 ],
					"style" : "",
					"text" : "unpack 1 2 3 4"
				}

			}
, 			{
				"box" : 				{
					"fontname" : "Arial",
					"fontsize" : 16.0,
					"id" : "obj-61",
					"maxclass" : "comment",
					"numinlets" : 1,
					"numoutlets" : 0,
					"patching_rect" : [ 881.0, 65.0, 62.0, 24.0 ],
					"style" : "",
					"text" : "On/Off"
				}

			}
, 			{
				"box" : 				{
					"id" : "obj-43",
					"maxclass" : "toggle",
					"numinlets" : 1,
					"numoutlets" : 1,
					"outlettype" : [ "int" ],
					"parameter_enable" : 0,
					"patching_rect" : [ 956.0, 65.0, 37.0, 37.0 ],
					"style" : ""
				}

			}
, 			{
				"box" : 				{
					"fontname" : "Arial",
					"fontsize" : 12.0,
					"id" : "obj-44",
					"maxclass" : "newobj",
					"numinlets" : 1,
					"numoutlets" : 0,
					"patching_rect" : [ 956.0, 125.0, 66.0, 22.0 ],
					"style" : "",
					"text" : "s startstop"
				}

			}
, 			{
				"box" : 				{
					"fontname" : "Arial",
					"fontsize" : 12.0,
					"id" : "obj-45",
					"maxclass" : "newobj",
					"numinlets" : 0,
					"numoutlets" : 1,
					"outlettype" : [ "" ],
					"patching_rect" : [ 664.0, 65.0, 64.0, 22.0 ],
					"style" : "",
					"text" : "r startstop"
				}

			}
, 			{
				"box" : 				{
					"fontname" : "Arial",
					"fontsize" : 12.0,
					"id" : "obj-10",
					"maxclass" : "newobj",
					"numinlets" : 1,
					"numoutlets" : 1,
					"outlettype" : [ "" ],
					"patching_rect" : [ 664.0, 175.0, 113.0, 22.0 ],
					"style" : "",
					"text" : "prepend getcolumn"
				}

			}
, 			{
				"box" : 				{
					"fontface" : 0,
					"fontname" : "Arial",
					"fontsize" : 12.0,
					"id" : "obj-46",
					"maxclass" : "newobj",
					"numinlets" : 5,
					"numoutlets" : 4,
					"outlettype" : [ "int", "", "", "int" ],
					"patching_rect" : [ 664.0, 145.0, 67.0, 22.0 ],
					"style" : "",
					"text" : "counter 16"
				}

			}
, 			{
				"box" : 				{
					"columns" : 16,
					"id" : "obj-5",
					"maxclass" : "matrixctrl",
					"numinlets" : 1,
					"numoutlets" : 2,
					"outlettype" : [ "list", "list" ],
					"parameter_enable" : 0,
					"patching_rect" : [ 671.0, 221.0, 281.0, 88.0 ],
					"presentation_rect" : [ 0.0, 0.0, 130.0, 66.0 ],
					"style" : ""
				}

			}
, 			{
				"box" : 				{
					"id" : "obj-27",
					"maxclass" : "number",
					"numinlets" : 1,
					"numoutlets" : 2,
					"outlettype" : [ "", "bang" ],
					"parameter_enable" : 0,
					"patching_rect" : [ 413.0, 553.0, 50.0, 22.0 ],
					"style" : ""
				}

			}
, 			{
				"box" : 				{
					"id" : "obj-25",
					"maxclass" : "number",
					"numinlets" : 1,
					"numoutlets" : 2,
					"outlettype" : [ "", "bang" ],
					"parameter_enable" : 0,
					"patching_rect" : [ 512.0, 257.0, 50.0, 22.0 ],
					"style" : ""
				}

			}
, 			{
				"box" : 				{
					"id" : "obj-23",
					"maxclass" : "button",
					"numinlets" : 1,
					"numoutlets" : 1,
					"outlettype" : [ "bang" ],
					"patching_rect" : [ 590.0, 540.0, 24.0, 24.0 ],
					"style" : ""
				}

			}
, 			{
				"box" : 				{
					"id" : "obj-21",
					"maxclass" : "newobj",
					"numinlets" : 2,
					"numoutlets" : 2,
					"outlettype" : [ "bang", "" ],
					"patching_rect" : [ 592.0, 502.0, 36.0, 22.0 ],
					"style" : "",
					"text" : "sel 1"
				}

			}
, 			{
				"box" : 				{
					"id" : "obj-12",
					"maxclass" : "newobj",
					"numinlets" : 5,
					"numoutlets" : 4,
					"outlettype" : [ "int", "", "", "int" ],
					"patching_rect" : [ 445.0, 214.0, 77.0, 22.0 ],
					"style" : "",
					"text" : "counter 1 16"
				}

			}
, 			{
				"box" : 				{
					"id" : "obj-16",
					"maxclass" : "message",
					"numinlets" : 2,
					"numoutlets" : 1,
					"outlettype" : [ "" ],
					"patching_rect" : [ 445.0, 266.0, 53.0, 22.0 ],
					"style" : "",
					"text" : "fetch $1"
				}

			}
, 			{
				"box" : 				{
					"candycane" : 4,
					"id" : "obj-8",
					"maxclass" : "multislider",
					"numinlets" : 1,
					"numoutlets" : 2,
					"outlettype" : [ "", "" ],
					"parameter_enable" : 0,
					"patching_rect" : [ 445.0, 330.0, 191.0, 145.0 ],
					"setminmax" : [ 0.0, 1.0 ],
					"setstyle" : 1,
					"settype" : 0,
					"size" : 16,
					"style" : ""
				}

			}
, 			{
				"box" : 				{
					"id" : "obj-7",
					"maxclass" : "newobj",
					"numinlets" : 2,
					"numoutlets" : 1,
					"outlettype" : [ "int" ],
					"patching_rect" : [ 310.0, 143.0, 41.0, 22.0 ],
					"style" : "",
					"text" : "+ 100"
				}

			}
, 			{
				"box" : 				{
					"id" : "obj-37",
					"maxclass" : "newobj",
					"numinlets" : 2,
					"numoutlets" : 1,
					"outlettype" : [ "int" ],
					"patching_rect" : [ 310.0, 113.0, 75.0, 22.0 ],
					"style" : "",
					"text" : "random 500"
				}

			}
, 			{
				"box" : 				{
					"id" : "obj-35",
					"maxclass" : "preset",
					"numinlets" : 1,
					"numoutlets" : 4,
					"outlettype" : [ "preset", "int", "preset", "int" ],
					"patching_rect" : [ 522.0, 106.0, 102.0, 104.0 ],
					"preset_data" : [ 						{
							"number" : 1,
							"data" : [ 5, "obj-6", "number", "int", 50, 5, "obj-9", "number", "int", 44, 5, "obj-11", "number", "int", 124, 5, "<invalid>", "toggle", "int", 1, 5, "<invalid>", "number", "int", 92, 5, "obj-3", "kslider", "int", 48, 8, "obj-13", "multislider", "list", 50, 55, 29, 49, 5, "obj-33", "toggle", "int", 0, 5, "obj-32", "number", "int", 511 ]
						}
, 						{
							"number" : 2,
							"data" : [ 5, "obj-6", "number", "int", 29, 5, "obj-9", "number", "int", 44, 5, "obj-11", "number", "int", 124, 5, "<invalid>", "toggle", "int", 1, 5, "<invalid>", "number", "int", 269, 5, "obj-3", "kslider", "int", 48, 8, "obj-13", "multislider", "list", 50, 55, 29, 49, 5, "obj-33", "toggle", "int", 0, 5, "obj-32", "number", "int", 511 ]
						}
, 						{
							"number" : 3,
							"data" : [ 5, "obj-6", "number", "int", 56, 5, "obj-9", "number", "int", 44, 5, "obj-11", "number", "int", 124, 5, "<invalid>", "toggle", "int", 1, 5, "<invalid>", "number", "int", 269, 5, "obj-3", "kslider", "int", 48, 8, "obj-13", "multislider", "list", 41, 56, 29, 53, 5, "obj-33", "toggle", "int", 0, 5, "obj-32", "number", "int", 511 ]
						}
, 						{
							"number" : 4,
							"data" : [ 5, "obj-6", "number", "int", 76, 5, "obj-9", "number", "int", 44, 5, "obj-11", "number", "int", 124, 5, "<invalid>", "toggle", "int", 1, 5, "<invalid>", "number", "int", 104, 5, "obj-3", "kslider", "int", 48, 8, "obj-13", "multislider", "list", 80, 76, 31, 23, 5, "obj-33", "toggle", "int", 0, 5, "obj-32", "number", "int", 511 ]
						}
, 						{
							"number" : 5,
							"data" : [ 5, "obj-6", "number", "int", 108, 5, "obj-9", "number", "int", 17, 5, "obj-11", "number", "int", 13, 5, "<invalid>", "toggle", "int", 1, 5, "<invalid>", "number", "int", 19, 5, "obj-3", "kslider", "int", 65, 8, "obj-13", "multislider", "list", 22, 108, 9, 31, 5, "obj-33", "toggle", "int", 1, 5, "obj-32", "number", "int", 287 ]
						}
, 						{
							"number" : 8,
							"data" : [ 8, "obj-13", "multislider", "list", 51, 51, 51, 51, 5, "obj-6", "number", "int", 51, 5, "obj-9", "number", "int", 44, 5, "obj-11", "number", "int", 124, 5, "<invalid>", "toggle", "int", 0, 5, "<invalid>", "number", "int", 676, 5, "obj-3", "kslider", "int", 62, 5, "obj-33", "toggle", "int", 1, 5, "obj-32", "number", "int", 332, 20, "obj-8", "multislider", "list", 1, 1, 1, 1, 1, 1, 1, 1, 1, 1, 1, 1, 1, 1, 1, 1, 5, "obj-25", "number", "int", 13, 5, "obj-27", "number", "int", 1, 100, "obj-5", "matrixctrl", "list", 0, 0, 1, 0, 1, 0, 0, 2, 0, 0, 3, 0, 1, 0, 0, 1, 1, 1, 1, 2, 1, 1, 3, 1, 2, 0, 1, 2, 1, 0, 2, 2, 1, 2, 3, 0, 3, 0, 0, 3, 1, 0, 3, 2, 0, 3, 3, 1, 4, 0, 0, 4, 1, 0, 4, 2, 0, 4, 3, 0, 5, 0, 1, 5, 1, 1, 5, 2, 0, 5, 3, 1, 6, 0, 1, 6, 1, 0, 6, 2, 0, 6, 3, 0, 7, 0, 1, 7, 1, 0, 7, 2, 0, 7, 3, 1, 5, "obj-43", "toggle", "int", 1, 5, "obj-95", "toggle", "int", 0, 5, "obj-102", "toggle", "int", 0, 5, "obj-103", "toggle", "int", 0, 5, "obj-104", "toggle", "int", 0, 5, "obj-42", "flonum", "float", 100.0 ]
						}
, 						{
							"number" : 17,
							"data" : [ 5, "obj-6", "number", "int", 15, 5, "obj-9", "number", "int", 44, 5, "obj-11", "number", "int", 124, 5, "<invalid>", "toggle", "int", 1, 5, "<invalid>", "number", "int", 92, 5, "obj-3", "kslider", "int", 48, 36, "obj-13", "multislider", "list", 15, 73, 29, 84, 0, 16, 22, 22, 22, 24, 22, 15, 14, 16, 25, 57, 66, 71, 77, 76, 70, 57, 45, 42, 40, 37, 38, 45, 44, 44, 44, 0, 5, "obj-33", "toggle", "int", 0, 5, "obj-32", "number", "int", 511 ]
						}
, 						{
							"number" : 18,
							"data" : [ 20, "obj-13", "multislider", "list", 52, 55, 43, 88, 55, 42, 55, 34, 55, 55, 55, 33, 55, 55, 77, 55, 5, "obj-6", "number", "int", 34, 5, "obj-9", "number", "int", 44, 5, "obj-11", "number", "int", 124, 5, "<invalid>", "toggle", "int", 1, 5, "<invalid>", "number", "int", 122, 5, "obj-3", "kslider", "int", 36, 5, "obj-33", "toggle", "int", 0, 5, "obj-32", "number", "int", 265, 20, "obj-8", "multislider", "list", 1, 1, 1, 0, 0, 0, 1, 0, 0, 0, 1, 0, 0, 0, 1, 0, 5, "obj-25", "number", "int", 2, 5, "obj-27", "number", "int", 1 ]
						}
, 						{
							"number" : 22,
							"data" : [ 20, "obj-13", "multislider", "list", 66, 0, 0, 0, 50, 0, 0, 0, 35, 35, 35, 35, 35, 35, 35, 35, 5, "obj-6", "number", "int", 35, 5, "obj-9", "number", "int", 8, 5, "obj-11", "number", "int", 0, 5, "<invalid>", "toggle", "int", 1, 5, "<invalid>", "number", "int", 444, 5, "obj-3", "kslider", "int", 36, 5, "obj-33", "toggle", "int", 0, 5, "obj-32", "number", "int", 558, 20, "obj-8", "multislider", "list", 1, 0, 0, 1, 0, 0, 1, 0, 0, 0, 1, 0, 1, 0, 1, 0, 5, "obj-25", "number", "int", 6, 5, "obj-27", "number", "int", 0 ]
						}
, 						{
							"number" : 24,
							"data" : [ 20, "obj-13", "multislider", "list", 52, 55, 43, 88, 55, 42, 55, 34, 55, 55, 55, 33, 55, 55, 77, 55, 5, "obj-6", "number", "int", 43, 5, "obj-9", "number", "int", 44, 5, "obj-11", "number", "int", 124, 5, "<invalid>", "toggle", "int", 1, 5, "<invalid>", "number", "int", 122, 5, "obj-3", "kslider", "int", 36, 5, "obj-33", "toggle", "int", 0, 5, "obj-32", "number", "int", 265, 20, "obj-8", "multislider", "list", 1, 1, 1, 0, 0, 0, 1, 0, 0, 0, 1, 0, 0, 0, 1, 0, 5, "obj-25", "number", "int", 11, 5, "obj-27", "number", "int", 1 ]
						}
, 						{
							"number" : 33,
							"data" : [ 20, "obj-13", "multislider", "list", 67, 67, 66, 61, 66, 0, 0, 42, 42, 43, 43, 42, 42, 0, 109, 1, 5, "obj-6", "number", "int", 43, 5, "obj-9", "number", "int", 44, 5, "obj-11", "number", "int", 93, 5, "obj-3", "kslider", "int", 36, 5, "obj-33", "toggle", "int", 0, 5, "obj-32", "number", "int", 390, 20, "obj-8", "multislider", "list", 1, 1, 1, 1, 1, 0, 0, 0, 0, 0, 0, 0, 0, 0, 1, 0, 5, "obj-25", "number", "int", 2, 5, "obj-27", "number", "int", 1, 196, "obj-5", "matrixctrl", "list", 0, 0, 1, 0, 1, 0, 0, 2, 0, 0, 3, 1, 1, 0, 0, 1, 1, 0, 1, 2, 0, 1, 3, 0, 2, 0, 1, 2, 1, 1, 2, 2, 0, 2, 3, 1, 3, 0, 0, 3, 1, 0, 3, 2, 0, 3, 3, 0, 4, 0, 1, 4, 1, 0, 4, 2, 0, 4, 3, 1, 5, 0, 0, 5, 1, 0, 5, 2, 0, 5, 3, 0, 6, 0, 1, 6, 1, 1, 6, 2, 0, 6, 3, 1, 7, 0, 0, 7, 1, 0, 7, 2, 0, 7, 3, 1, 8, 0, 1, 8, 1, 0, 8, 2, 0, 8, 3, 1, 9, 0, 0, 9, 1, 0, 9, 2, 0, 9, 3, 1, 10, 0, 0, 10, 1, 1, 10, 2, 0, 10, 3, 1, 11, 0, 0, 11, 1, 0, 11, 2, 0, 11, 3, 1, 12, 0, 0, 12, 1, 0, 12, 2, 0, 12, 3, 1, 13, 0, 0, 13, 1, 0, 13, 2, 0, 13, 3, 0, 14, 0, 1, 14, 1, 0, 14, 2, 0, 14, 3, 1, 15, 0, 0, 15, 1, 0, 15, 2, 0, 15, 3, 0, 5, "obj-43", "toggle", "int", 1, 5, "obj-95", "toggle", "int", 0, 5, "obj-102", "toggle", "int", 0, 5, "obj-103", "toggle", "int", 1, 5, "obj-104", "toggle", "int", 0, 5, "obj-42", "flonum", "float", 112.0, 256, "obj-53", "matrixctrl", "list", 0, 0, 0, 0, 1, 0, 0, 2, 0, 0, 3, 0, 0, 4, 0, 0, 5, 0, 0, 6, 0, 0, 7, 0, 0, 8, 0, 0, 9, 0, 0, 10, 0, 0, 11, 0, 0, 12, 0, 0, 13, 0, 0, 14, 0, 0, 15, 0, 1, 0, 0, 1, 1, 0, 1, 2, 0, 1, 3, 0, 1, 4, 1, 1, 5, 0, 1, 6, 0, 1, 7, 0, 1, 8, 0, 1, 9, 0, 1, 10, 0, 1, 11, 0, 1, 12, 0, 1, 13, 0, 1, 14, 0, 1, 15, 0, 2, 0, 0, 2, 1, 0, 2, 2, 0, 2, 3, 0, 2, 4, 0, 2, 5, 0, 2, 6, 0, 2, 7, 0, 2, 8, 0, 2, 9, 0, 2, 10, 0, 2, 11, 0, 2, 12, 0, 2, 13, 0, 2, 14, 0, 2, 15, 0, 3, 0, 0, 3, 1, 0, 3, 2, 0, 3, 3, 0, 3, 4, 0, 3, 5, 0, 3, 6, 0, 3, 7, 0, 3, 8, 0, 3, 9, 0, 3, 10, 0, 3, 11, 0, 3, 12, 0, 3, 13, 0, 3, 14, 0, 3, 15, 0, 4, 0, 0, 4, 1, 0, 4, 2, 0, 4, 3, 0, 4, 4, 0, 4, 5, 0, 4, 6, 0, 4, 7, 0, 4, 8, 0, 4, 9, 0, 4, 10, 0, 4, 11, 0, 4, 12, 0, 4, 13, 0, 4, 14, 0, 4, 15, 0, 5, 0, 0, 5, 1, 0, 5, 2, 0, 5, 3, 0, 256, "obj-53", "matrixctrl", "list", 5, 4, 1, 5, 5, 0, 5, 6, 0, 5, 7, 0, 5, 8, 0, 5, 9, 0, 5, 10, 0, 5, 11, 0, 5, 12, 0, 5, 13, 0, 5, 14, 0, 5, 15, 0, 6, 0, 0, 6, 1, 0, 6, 2, 0, 6, 3, 0, 6, 4, 0, 6, 5, 0, 6, 6, 0, 6, 7, 0, 6, 8, 0, 6, 9, 0, 6, 10, 0, 6, 11, 0, 6, 12, 0, 6, 13, 0, 6, 14, 0, 6, 15, 0, 7, 0, 0, 7, 1, 0, 7, 2, 0, 7, 3, 0, 7, 4, 1, 7, 5, 0, 7, 6, 0, 7, 7, 0, 7, 8, 0, 7, 9, 0, 7, 10, 0, 7, 11, 0, 7, 12, 0, 7, 13, 0, 7, 14, 0, 7, 15, 0, 8, 0, 0, 8, 1, 0, 8, 2, 0, 8, 3, 0, 8, 4, 0, 8, 5, 0, 8, 6, 0, 8, 7, 0, 8, 8, 0, 8, 9, 0, 8, 10, 0, 8, 11, 0, 8, 12, 0, 8, 13, 0, 8, 14, 0, 8, 15, 0, 9, 0, 0, 9, 1, 0, 9, 2, 0, 9, 3, 0, 9, 4, 1, 9, 5, 0, 9, 6, 0, 9, 7, 0, 9, 8, 0, 9, 9, 0, 9, 10, 0, 9, 11, 0, 9, 12, 0, 9, 13, 0, 9, 14, 0, 9, 15, 0, 10, 0, 0, 10, 1, 0, 10, 2, 0, 10, 3, 0, 10, 4, 0, 10, 5, 0, 10, 6, 0, 10, 7, 0, 256, "obj-53", "matrixctrl", "list", 10, 8, 0, 10, 9, 0, 10, 10, 0, 10, 11, 0, 10, 12, 0, 10, 13, 0, 10, 14, 0, 10, 15, 0, 11, 0, 0, 11, 1, 0, 11, 2, 0, 11, 3, 0, 11, 4, 1, 11, 5, 0, 11, 6, 0, 11, 7, 0, 11, 8, 0, 11, 9, 0, 11, 10, 0, 11, 11, 0, 11, 12, 0, 11, 13, 0, 11, 14, 0, 11, 15, 0, 12, 0, 0, 12, 1, 0, 12, 2, 0, 12, 3, 0, 12, 4, 0, 12, 5, 0, 12, 6, 0, 12, 7, 0, 12, 8, 0, 12, 9, 0, 12, 10, 0, 12, 11, 0, 12, 12, 0, 12, 13, 0, 12, 14, 0, 12, 15, 0, 13, 0, 0, 13, 1, 0, 13, 2, 0, 13, 3, 0, 13, 4, 1, 13, 5, 0, 13, 6, 0, 13, 7, 0, 13, 8, 0, 13, 9, 0, 13, 10, 0, 13, 11, 0, 13, 12, 0, 13, 13, 0, 13, 14, 0, 13, 15, 0, 14, 0, 0, 14, 1, 0, 14, 2, 0, 14, 3, 0, 14, 4, 0, 14, 5, 0, 14, 6, 0, 14, 7, 0, 14, 8, 0, 14, 9, 0, 14, 10, 0, 14, 11, 0, 14, 12, 0, 14, 13, 0, 14, 14, 0, 14, 15, 0, 15, 0, 0, 15, 1, 0, 15, 2, 1, 15, 3, 0, 15, 4, 0, 15, 5, 0, 15, 6, 0, 15, 7, 0, 15, 8, 0, 15, 9, 0, 15, 10, 0, 15, 11, 0, 16, "obj-53", "matrixctrl", "list", 15, 12, 0, 15, 13, 0, 15, 14, 0, 15, 15, 0, 5, "obj-54", "number", "int", 52 ]
						}
, 						{
							"number" : 41,
							"data" : [ 20, "obj-13", "multislider", "list", 64, 55, 47, 88, 42, 42, 55, 55, 55, 55, 55, 33, 55, 55, 53, 55, 5, "obj-6", "number", "int", 55, 5, "obj-9", "number", "int", 44, 5, "obj-11", "number", "int", 124, 5, "<invalid>", "toggle", "int", 0, 5, "<invalid>", "number", "int", 676, 5, "obj-3", "kslider", "int", 36, 5, "obj-33", "toggle", "int", 0, 5, "obj-32", "number", "int", 265, 20, "obj-8", "multislider", "list", 1, 1, 1, 1, 1, 0, 0, 0, 0, 0, 1, 0, 0, 0, 1, 0, 5, "obj-25", "number", "int", 9, 5, "obj-27", "number", "int", 0, 196, "obj-5", "matrixctrl", "list", 0, 0, 1, 0, 1, 0, 0, 2, 0, 0, 3, 0, 1, 0, 0, 1, 1, 0, 1, 2, 0, 1, 3, 1, 2, 0, 0, 2, 1, 1, 2, 2, 0, 2, 3, 1, 3, 0, 0, 3, 1, 0, 3, 2, 0, 3, 3, 0, 4, 0, 1, 4, 1, 0, 4, 2, 0, 4, 3, 1, 5, 0, 0, 5, 1, 0, 5, 2, 1, 5, 3, 0, 6, 0, 0, 6, 1, 0, 6, 2, 0, 6, 3, 0, 7, 0, 0, 7, 1, 1, 7, 2, 0, 7, 3, 1, 8, 0, 0, 8, 1, 0, 8, 2, 0, 8, 3, 0, 9, 0, 1, 9, 1, 1, 9, 2, 0, 9, 3, 0, 10, 0, 0, 10, 1, 1, 10, 2, 0, 10, 3, 0, 11, 0, 0, 11, 1, 0, 11, 2, 0, 11, 3, 0, 12, 0, 0, 12, 1, 0, 12, 2, 1, 12, 3, 0, 13, 0, 0, 13, 1, 0, 13, 2, 0, 13, 3, 0, 14, 0, 1, 14, 1, 0, 14, 2, 0, 14, 3, 0, 15, 0, 1, 15, 1, 0, 15, 2, 0, 15, 3, 0, 5, "obj-43", "toggle", "int", 1, 5, "obj-95", "toggle", "int", 1, 5, "obj-102", "toggle", "int", 0, 5, "obj-103", "toggle", "int", 0, 5, "obj-104", "toggle", "int", 0, 5, "obj-42", "flonum", "float", 100.0, 256, "<invalid>", "matrixctrl", "list", 0, 0, 0, 0, 1, 0, 0, 2, 0, 0, 3, 0, 0, 4, 0, 0, 5, 0, 0, 6, 0, 0, 7, 0, 0, 8, 0, 0, 9, 0, 0, 10, 0, 0, 11, 0, 0, 12, 0, 0, 13, 0, 0, 14, 0, 0, 15, 0, 0, 16, 0, 0, 17, 0, 0, 18, 0, 0, 19, 0, 0, 20, 0, 0, 21, 0, 0, 22, 0, 0, 23, 0, 1, 0, 0, 1, 1, 0, 1, 2, 0, 1, 3, 0, 1, 4, 0, 1, 5, 0, 1, 6, 0, 1, 7, 0, 1, 8, 0, 1, 9, 0, 1, 10, 0, 1, 11, 0, 1, 12, 0, 1, 13, 0, 1, 14, 0, 1, 15, 0, 1, 16, 0, 1, 17, 0, 1, 18, 0, 1, 19, 0, 1, 20, 0, 1, 21, 0, 1, 22, 0, 1, 23, 0, 2, 0, 0, 2, 1, 0, 2, 2, 0, 2, 3, 0, 2, 4, 0, 2, 5, 0, 2, 6, 0, 2, 7, 0, 2, 8, 0, 2, 9, 0, 2, 10, 0, 2, 11, 0, 2, 12, 0, 2, 13, 0, 2, 14, 0, 2, 15, 0, 2, 16, 0, 2, 17, 0, 2, 18, 0, 2, 19, 0, 2, 20, 0, 2, 21, 0, 2, 22, 0, 2, 23, 0, 3, 0, 0, 3, 1, 0, 3, 2, 0, 3, 3, 0, 3, 4, 0, 3, 5, 0, 3, 6, 0, 3, 7, 0, 3, 8, 0, 3, 9, 0, 3, 10, 0, 3, 11, 0, 256, "<invalid>", "matrixctrl", "list", 3, 12, 0, 3, 13, 0, 3, 14, 0, 3, 15, 0, 3, 16, 0, 3, 17, 0, 3, 18, 0, 3, 19, 0, 3, 20, 0, 3, 21, 0, 3, 22, 0, 3, 23, 0, 4, 0, 0, 4, 1, 0, 4, 2, 0, 4, 3, 0, 4, 4, 0, 4, 5, 0, 4, 6, 0, 4, 7, 0, 4, 8, 0, 4, 9, 0, 4, 10, 0, 4, 11, 0, 4, 12, 0, 4, 13, 0, 4, 14, 0, 4, 15, 0, 4, 16, 0, 4, 17, 0, 4, 18, 0, 4, 19, 0, 4, 20, 0, 4, 21, 0, 4, 22, 0, 4, 23, 0, 5, 0, 0, 5, 1, 0, 5, 2, 0, 5, 3, 0, 5, 4, 0, 5, 5, 0, 5, 6, 0, 5, 7, 0, 5, 8, 0, 5, 9, 0, 5, 10, 0, 5, 11, 0, 5, 12, 0, 5, 13, 0, 5, 14, 0, 5, 15, 0, 5, 16, 0, 5, 17, 0, 5, 18, 0, 5, 19, 0, 5, 20, 0, 5, 21, 0, 5, 22, 0, 5, 23, 0, 6, 0, 0, 6, 1, 0, 6, 2, 0, 6, 3, 0, 6, 4, 0, 6, 5, 0, 6, 6, 0, 6, 7, 0, 6, 8, 0, 6, 9, 0, 6, 10, 0, 6, 11, 0, 6, 12, 0, 6, 13, 0, 6, 14, 0, 6, 15, 0, 6, 16, 0, 6, 17, 0, 6, 18, 0, 6, 19, 0, 6, 20, 0, 6, 21, 0, 6, 22, 0, 6, 23, 0, 256, "<invalid>", "matrixctrl", "list", 7, 0, 0, 7, 1, 0, 7, 2, 0, 7, 3, 0, 7, 4, 0, 7, 5, 0, 7, 6, 0, 7, 7, 0, 7, 8, 0, 7, 9, 0, 7, 10, 0, 7, 11, 0, 7, 12, 0, 7, 13, 0, 7, 14, 0, 7, 15, 0, 7, 16, 0, 7, 17, 0, 7, 18, 0, 7, 19, 0, 7, 20, 0, 7, 21, 0, 7, 22, 0, 7, 23, 0, 8, 0, 0, 8, 1, 0, 8, 2, 0, 8, 3, 0, 8, 4, 0, 8, 5, 0, 8, 6, 0, 8, 7, 0, 8, 8, 0, 8, 9, 0, 8, 10, 0, 8, 11, 0, 8, 12, 0, 8, 13, 0, 8, 14, 0, 8, 15, 0, 8, 16, 0, 8, 17, 0, 8, 18, 0, 8, 19, 0, 8, 20, 0, 8, 21, 0, 8, 22, 0, 8, 23, 0, 9, 0, 0, 9, 1, 0, 9, 2, 0, 9, 3, 0, 9, 4, 0, 9, 5, 0, 9, 6, 0, 9, 7, 0, 9, 8, 0, 9, 9, 0, 9, 10, 0, 9, 11, 0, 9, 12, 0, 9, 13, 0, 9, 14, 0, 9, 15, 0, 9, 16, 0, 9, 17, 0, 9, 18, 0, 9, 19, 0, 9, 20, 0, 9, 21, 0, 9, 22, 0, 9, 23, 0, 10, 0, 0, 10, 1, 0, 10, 2, 0, 10, 3, 0, 10, 4, 0, 10, 5, 0, 10, 6, 0, 10, 7, 0, 10, 8, 0, 10, 9, 0, 10, 10, 0, 10, 11, 0, 256, "<invalid>", "matrixctrl", "list", 10, 12, 0, 10, 13, 0, 10, 14, 0, 10, 15, 0, 10, 16, 0, 10, 17, 0, 10, 18, 0, 10, 19, 0, 10, 20, 0, 10, 21, 0, 10, 22, 0, 10, 23, 0, 11, 0, 0, 11, 1, 0, 11, 2, 0, 11, 3, 0, 11, 4, 0, 11, 5, 0, 11, 6, 0, 11, 7, 0, 11, 8, 0, 11, 9, 0, 11, 10, 0, 11, 11, 0, 11, 12, 0, 11, 13, 0, 11, 14, 0, 11, 15, 0, 11, 16, 0, 11, 17, 0, 11, 18, 0, 11, 19, 0, 11, 20, 0, 11, 21, 0, 11, 22, 0, 11, 23, 0, 12, 0, 0, 12, 1, 0, 12, 2, 0, 12, 3, 0, 12, 4, 0, 12, 5, 0, 12, 6, 0, 12, 7, 0, 12, 8, 0, 12, 9, 0, 12, 10, 0, 12, 11, 0, 12, 12, 0, 12, 13, 0, 12, 14, 0, 12, 15, 0, 12, 16, 0, 12, 17, 0, 12, 18, 0, 12, 19, 0, 12, 20, 0, 12, 21, 0, 12, 22, 0, 12, 23, 0, 13, 0, 0, 13, 1, 0, 13, 2, 0, 13, 3, 0, 13, 4, 0, 13, 5, 0, 13, 6, 0, 13, 7, 0, 13, 8, 0, 13, 9, 0, 13, 10, 0, 13, 11, 0, 13, 12, 0, 13, 13, 0, 13, 14, 0, 13, 15, 0, 13, 16, 0, 13, 17, 0, 13, 18, 0, 13, 19, 0, 13, 20, 0, 13, 21, 0, 13, 22, 0, 13, 23, 0, 148, "<invalid>", "matrixctrl", "list", 14, 0, 0, 14, 1, 0, 14, 2, 0, 14, 3, 0, 14, 4, 0, 14, 5, 0, 14, 6, 0, 14, 7, 0, 14, 8, 0, 14, 9, 0, 14, 10, 0, 14, 11, 0, 14, 12, 0, 14, 13, 0, 14, 14, 0, 14, 15, 0, 14, 16, 0, 14, 17, 0, 14, 18, 0, 14, 19, 0, 14, 20, 0, 14, 21, 0, 14, 22, 0, 14, 23, 0, 15, 0, 0, 15, 1, 0, 15, 2, 0, 15, 3, 0, 15, 4, 0, 15, 5, 0, 15, 6, 0, 15, 7, 0, 15, 8, 0, 15, 9, 0, 15, 10, 0, 15, 11, 0, 15, 12, 0, 15, 13, 0, 15, 14, 0, 15, 15, 0, 15, 16, 0, 15, 17, 0, 15, 18, 0, 15, 19, 0, 15, 20, 0, 15, 21, 0, 15, 22, 0, 15, 23, 0 ]
						}
, 						{
							"number" : 57,
							"data" : [ 20, "obj-13", "multislider", "list", 62, 78, 37, 0, 0, 0, 0, 0, 0, 0, 0, 79, 0, 0, 0, 0, 5, "obj-6", "number", "int", 0, 5, "obj-9", "number", "int", 44, 5, "obj-11", "number", "int", 124, 5, "<invalid>", "toggle", "int", 0, 5, "<invalid>", "number", "int", 676, 5, "obj-3", "kslider", "int", 36, 5, "obj-33", "toggle", "int", 0, 5, "obj-32", "number", "int", 453, 20, "obj-8", "multislider", "list", 1, 1, 0, 0, 0, 0, 0, 0, 0, 0, 0, 1, 0, 0, 0, 0, 5, "obj-25", "number", "int", 5, 5, "obj-27", "number", "int", 0, 100, "obj-5", "matrixctrl", "list", 0, 0, 1, 0, 1, 0, 0, 2, 0, 0, 3, 1, 1, 0, 0, 1, 1, 0, 1, 2, 0, 1, 3, 0, 2, 0, 1, 2, 1, 0, 2, 2, 0, 2, 3, 1, 3, 0, 0, 3, 1, 0, 3, 2, 0, 3, 3, 0, 4, 0, 0, 4, 1, 1, 4, 2, 0, 4, 3, 1, 5, 0, 0, 5, 1, 0, 5, 2, 0, 5, 3, 0, 6, 0, 1, 6, 1, 0, 6, 2, 0, 6, 3, 1, 7, 0, 0, 7, 1, 0, 7, 2, 0, 7, 3, 0, 5, "obj-43", "toggle", "int", 1, 5, "obj-95", "toggle", "int", 0, 5, "obj-102", "toggle", "int", 0, 5, "obj-103", "toggle", "int", 0, 5, "obj-104", "toggle", "int", 0, 5, "obj-42", "flonum", "float", 130.0 ]
						}
, 						{
							"number" : 58,
							"data" : [ 20, "obj-13", "multislider", "list", 62, 78, 37, 0, 0, 0, 0, 0, 0, 0, 0, 79, 0, 0, 0, 0, 5, "obj-6", "number", "int", 0, 5, "obj-9", "number", "int", 44, 5, "obj-11", "number", "int", 124, 5, "<invalid>", "toggle", "int", 0, 5, "<invalid>", "number", "int", 676, 5, "obj-3", "kslider", "int", 36, 5, "obj-33", "toggle", "int", 0, 5, "obj-32", "number", "int", 453, 20, "obj-8", "multislider", "list", 1, 1, 0, 0, 0, 0, 0, 0, 0, 0, 0, 1, 0, 0, 0, 0, 5, "obj-25", "number", "int", 12, 5, "obj-27", "number", "int", 1, 100, "obj-5", "matrixctrl", "list", 0, 0, 1, 0, 1, 0, 0, 2, 0, 0, 3, 1, 1, 0, 0, 1, 1, 0, 1, 2, 1, 1, 3, 0, 2, 0, 1, 2, 1, 0, 2, 2, 0, 2, 3, 1, 3, 0, 0, 3, 1, 0, 3, 2, 1, 3, 3, 0, 4, 0, 0, 4, 1, 1, 4, 2, 0, 4, 3, 1, 5, 0, 0, 5, 1, 0, 5, 2, 1, 5, 3, 0, 6, 0, 1, 6, 1, 0, 6, 2, 0, 6, 3, 1, 7, 0, 0, 7, 1, 0, 7, 2, 1, 7, 3, 0, 5, "obj-43", "toggle", "int", 1, 5, "obj-95", "toggle", "int", 0, 5, "obj-102", "toggle", "int", 0, 5, "obj-103", "toggle", "int", 0, 5, "obj-104", "toggle", "int", 1, 5, "obj-42", "flonum", "float", 130.0 ]
						}
, 						{
							"number" : 59,
							"data" : [ 20, "obj-13", "multislider", "list", 52, 55, 43, 88, 55, 42, 55, 34, 55, 55, 55, 33, 55, 55, 77, 55, 5, "obj-6", "number", "int", 55, 5, "obj-9", "number", "int", 44, 5, "obj-11", "number", "int", 124, 5, "<invalid>", "toggle", "int", 0, 5, "<invalid>", "number", "int", 676, 5, "obj-3", "kslider", "int", 36, 5, "obj-33", "toggle", "int", 0, 5, "obj-32", "number", "int", 265, 20, "obj-8", "multislider", "list", 1, 1, 1, 0, 0, 0, 1, 0, 0, 0, 1, 0, 0, 0, 1, 0, 5, "obj-25", "number", "int", 11, 5, "obj-27", "number", "int", 1, 100, "obj-5", "matrixctrl", "list", 0, 0, 1, 0, 1, 0, 0, 2, 0, 0, 3, 1, 1, 0, 0, 1, 1, 0, 1, 2, 0, 1, 3, 0, 2, 0, 1, 2, 1, 0, 2, 2, 0, 2, 3, 1, 3, 0, 0, 3, 1, 0, 3, 2, 0, 3, 3, 0, 4, 0, 0, 4, 1, 1, 4, 2, 0, 4, 3, 1, 5, 0, 0, 5, 1, 0, 5, 2, 0, 5, 3, 0, 6, 0, 1, 6, 1, 0, 6, 2, 0, 6, 3, 1, 7, 0, 0, 7, 1, 0, 7, 2, 0, 7, 3, 0, 5, "obj-43", "toggle", "int", 1, 5, "obj-95", "toggle", "int", 0, 5, "obj-102", "toggle", "int", 0, 5, "obj-103", "toggle", "int", 0, 5, "obj-104", "toggle", "int", 0, 5, "obj-42", "flonum", "float", 130.0 ]
						}
, 						{
							"number" : 60,
							"data" : [ 20, "obj-13", "multislider", "list", 52, 55, 43, 88, 55, 42, 55, 34, 55, 55, 55, 33, 55, 55, 77, 55, 5, "obj-6", "number", "int", 77, 5, "obj-9", "number", "int", 44, 5, "obj-11", "number", "int", 124, 5, "<invalid>", "toggle", "int", 0, 5, "<invalid>", "number", "int", 676, 5, "obj-3", "kslider", "int", 36, 5, "obj-33", "toggle", "int", 0, 5, "obj-32", "number", "int", 265, 20, "obj-8", "multislider", "list", 1, 1, 1, 0, 0, 0, 1, 0, 0, 0, 1, 0, 0, 0, 1, 0, 5, "obj-25", "number", "int", 8, 5, "obj-27", "number", "int", 0, 100, "obj-5", "matrixctrl", "list", 0, 0, 1, 0, 1, 0, 0, 2, 1, 0, 3, 1, 1, 0, 0, 1, 1, 1, 1, 2, 0, 1, 3, 0, 2, 0, 1, 2, 1, 0, 2, 2, 1, 2, 3, 1, 3, 0, 0, 3, 1, 0, 3, 2, 1, 3, 3, 0, 4, 0, 1, 4, 1, 1, 4, 2, 0, 4, 3, 1, 5, 0, 0, 5, 1, 0, 5, 2, 1, 5, 3, 0, 6, 0, 1, 6, 1, 0, 6, 2, 0, 6, 3, 1, 7, 0, 0, 7, 1, 0, 7, 2, 1, 7, 3, 0, 5, "obj-43", "toggle", "int", 1, 5, "obj-95", "toggle", "int", 1, 5, "obj-102", "toggle", "int", 1, 5, "obj-103", "toggle", "int", 1, 5, "obj-104", "toggle", "int", 0, 5, "obj-42", "flonum", "float", 68.0 ]
						}
 ],
					"style" : ""
				}

			}
, 			{
				"box" : 				{
					"id" : "obj-32",
					"maxclass" : "number",
					"numinlets" : 1,
					"numoutlets" : 2,
					"outlettype" : [ "", "bang" ],
					"parameter_enable" : 0,
					"patching_rect" : [ 229.0, 102.0, 50.0, 22.0 ],
					"style" : ""
				}

			}
, 			{
				"box" : 				{
					"id" : "obj-33",
					"maxclass" : "toggle",
					"numinlets" : 1,
					"numoutlets" : 1,
					"outlettype" : [ "int" ],
					"parameter_enable" : 0,
					"patching_rect" : [ 198.0, 112.0, 24.0, 24.0 ],
					"style" : ""
				}

			}
, 			{
				"box" : 				{
					"id" : "obj-34",
					"maxclass" : "newobj",
					"numinlets" : 2,
					"numoutlets" : 1,
					"outlettype" : [ "bang" ],
					"patching_rect" : [ 198.0, 169.0, 65.0, 22.0 ],
					"style" : "",
					"text" : "metro 120"
				}

			}
, 			{
				"box" : 				{
					"id" : "obj-20",
					"maxclass" : "newobj",
					"numinlets" : 5,
					"numoutlets" : 4,
					"outlettype" : [ "int", "", "", "int" ],
					"patching_rect" : [ 358.0, 221.0, 77.0, 22.0 ],
					"style" : "",
					"text" : "counter 1 16"
				}

			}
, 			{
				"box" : 				{
					"id" : "obj-18",
					"maxclass" : "message",
					"numinlets" : 2,
					"numoutlets" : 1,
					"outlettype" : [ "" ],
					"patching_rect" : [ 364.0, 256.0, 53.0, 22.0 ],
					"style" : "",
					"text" : "fetch $1"
				}

			}
, 			{
				"box" : 				{
					"id" : "obj-3",
					"maxclass" : "kslider",
					"numinlets" : 2,
					"numoutlets" : 2,
					"outlettype" : [ "int", "int" ],
					"parameter_enable" : 0,
					"patching_rect" : [ 12.0, 23.0, 336.0, 53.0 ],
					"presentation_rect" : [ 0.0, 0.0, 336.0, 53.0 ],
					"style" : ""
				}

			}
, 			{
				"box" : 				{
					"id" : "obj-14",
					"maxclass" : "newobj",
					"numinlets" : 2,
					"numoutlets" : 1,
					"outlettype" : [ "int" ],
					"patching_rect" : [ 119.0, 214.0, 75.0, 22.0 ],
					"style" : "",
					"text" : "random 100"
				}

			}
, 			{
				"box" : 				{
					"id" : "obj-11",
					"maxclass" : "number",
					"numinlets" : 1,
					"numoutlets" : 2,
					"outlettype" : [ "", "bang" ],
					"parameter_enable" : 0,
					"patching_rect" : [ 56.0, 258.0, 50.0, 22.0 ],
					"style" : ""
				}

			}
, 			{
				"box" : 				{
					"id" : "obj-9",
					"maxclass" : "number",
					"numinlets" : 1,
					"numoutlets" : 2,
					"outlettype" : [ "", "bang" ],
					"parameter_enable" : 0,
					"patching_rect" : [ 34.0, 159.0, 50.0, 22.0 ],
					"style" : ""
				}

			}
, 			{
				"box" : 				{
					"id" : "obj-6",
					"maxclass" : "number",
					"numinlets" : 1,
					"numoutlets" : 2,
					"outlettype" : [ "", "bang" ],
					"parameter_enable" : 0,
					"patching_rect" : [ 12.0, 294.0, 50.0, 22.0 ],
					"style" : ""
				}

			}
, 			{
				"box" : 				{
					"id" : "obj-2",
					"maxclass" : "newobj",
					"numinlets" : 3,
					"numoutlets" : 2,
					"outlettype" : [ "float", "float" ],
					"patching_rect" : [ 12.0, 371.0, 63.0, 22.0 ],
					"style" : "",
					"text" : "makenote"
				}

			}
, 			{
				"box" : 				{
					"id" : "obj-1",
					"maxclass" : "newobj",
					"numinlets" : 3,
					"numoutlets" : 0,
					"patching_rect" : [ 12.0, 453.0, 51.0, 22.0 ],
					"style" : "",
					"text" : "noteout"
				}

			}
, 			{
				"box" : 				{
					"background" : 1,
					"candycane" : 4,
					"id" : "obj-13",
					"maxclass" : "multislider",
					"numinlets" : 1,
					"numoutlets" : 2,
					"outlettype" : [ "", "" ],
					"parameter_enable" : 0,
					"patching_rect" : [ 119.0, 338.0, 251.0, 112.0 ],
					"setminmax" : [ 0.0, 127.0 ],
					"setstyle" : 1,
					"settype" : 0,
					"size" : 4,
					"style" : ""
				}

			}
 ],
		"lines" : [ 			{
				"patchline" : 				{
					"destination" : [ "obj-5", 0 ],
					"disabled" : 0,
					"hidden" : 0,
					"order" : 0,
					"source" : [ "obj-10", 0 ]
				}

			}
, 			{
				"patchline" : 				{
					"destination" : [ "obj-53", 0 ],
					"disabled" : 0,
					"hidden" : 0,
					"order" : 1,
					"source" : [ "obj-10", 0 ]
				}

			}
, 			{
				"patchline" : 				{
					"destination" : [ "obj-31", 0 ],
					"disabled" : 0,
					"hidden" : 0,
					"midpoints" : [ 1028.833374, 407.0, 998.833374, 407.0 ],
					"source" : [ "obj-102", 0 ]
				}

			}
, 			{
				"patchline" : 				{
					"destination" : [ "obj-24", 0 ],
					"disabled" : 0,
					"hidden" : 0,
					"source" : [ "obj-103", 0 ]
				}

			}
, 			{
				"patchline" : 				{
					"destination" : [ "obj-26", 0 ],
					"disabled" : 0,
					"hidden" : 0,
					"source" : [ "obj-104", 0 ]
				}

			}
, 			{
				"patchline" : 				{
					"destination" : [ "obj-2", 2 ],
					"disabled" : 0,
					"hidden" : 0,
					"source" : [ "obj-11", 0 ]
				}

			}
, 			{
				"patchline" : 				{
					"destination" : [ "obj-16", 0 ],
					"disabled" : 0,
					"hidden" : 0,
					"order" : 1,
					"source" : [ "obj-12", 0 ]
				}

			}
, 			{
				"patchline" : 				{
					"destination" : [ "obj-25", 0 ],
					"disabled" : 0,
					"hidden" : 0,
					"order" : 0,
					"source" : [ "obj-12", 0 ]
				}

			}
, 			{
				"patchline" : 				{
					"destination" : [ "obj-6", 0 ],
					"disabled" : 0,
					"hidden" : 0,
					"source" : [ "obj-13", 1 ]
				}

			}
, 			{
				"patchline" : 				{
					"destination" : [ "obj-6", 0 ],
					"disabled" : 0,
					"hidden" : 0,
					"midpoints" : [ 128.5, 250.0, 21.5, 250.0 ],
					"source" : [ "obj-14", 0 ]
				}

			}
, 			{
				"patchline" : 				{
					"destination" : [ "obj-63", 0 ],
					"disabled" : 0,
					"hidden" : 0,
					"source" : [ "obj-15", 0 ]
				}

			}
, 			{
				"patchline" : 				{
					"destination" : [ "obj-8", 0 ],
					"disabled" : 0,
					"hidden" : 0,
					"source" : [ "obj-16", 0 ]
				}

			}
, 			{
				"patchline" : 				{
					"destination" : [ "obj-60", 0 ],
					"disabled" : 0,
					"hidden" : 0,
					"source" : [ "obj-17", 0 ]
				}

			}
, 			{
				"patchline" : 				{
					"destination" : [ "obj-13", 0 ],
					"disabled" : 0,
					"hidden" : 0,
					"source" : [ "obj-18", 0 ]
				}

			}
, 			{
				"patchline" : 				{
					"destination" : [ "obj-59", 0 ],
					"disabled" : 0,
					"hidden" : 0,
					"source" : [ "obj-19", 0 ]
				}

			}
, 			{
				"patchline" : 				{
					"destination" : [ "obj-1", 1 ],
					"disabled" : 0,
					"hidden" : 0,
					"midpoints" : [ 65.5, 422.5, 37.5, 422.5 ],
					"source" : [ "obj-2", 1 ]
				}

			}
, 			{
				"patchline" : 				{
					"destination" : [ "obj-1", 0 ],
					"disabled" : 0,
					"hidden" : 0,
					"source" : [ "obj-2", 0 ]
				}

			}
, 			{
				"patchline" : 				{
					"destination" : [ "obj-18", 0 ],
					"disabled" : 0,
					"hidden" : 0,
					"source" : [ "obj-20", 0 ]
				}

			}
, 			{
				"patchline" : 				{
					"destination" : [ "obj-23", 0 ],
					"disabled" : 0,
					"hidden" : 0,
					"source" : [ "obj-21", 0 ]
				}

			}
, 			{
				"patchline" : 				{
					"destination" : [ "obj-131", 0 ],
					"disabled" : 0,
					"hidden" : 0,
					"source" : [ "obj-22", 0 ]
				}

			}
, 			{
				"patchline" : 				{
					"destination" : [ "obj-20", 0 ],
					"disabled" : 0,
					"hidden" : 0,
					"source" : [ "obj-23", 0 ]
				}

			}
, 			{
				"patchline" : 				{
					"destination" : [ "obj-30", 0 ],
					"disabled" : 0,
					"hidden" : 0,
					"source" : [ "obj-24", 0 ]
				}

			}
, 			{
				"patchline" : 				{
					"destination" : [ "obj-28", 0 ],
					"disabled" : 0,
					"hidden" : 0,
					"source" : [ "obj-26", 0 ]
				}

			}
, 			{
				"patchline" : 				{
					"destination" : [ "obj-131", 0 ],
					"disabled" : 0,
					"hidden" : 0,
					"source" : [ "obj-28", 0 ]
				}

			}
, 			{
				"patchline" : 				{
					"destination" : [ "obj-6", 0 ],
					"disabled" : 0,
					"hidden" : 0,
					"source" : [ "obj-3", 0 ]
				}

			}
, 			{
				"patchline" : 				{
					"destination" : [ "obj-131", 0 ],
					"disabled" : 0,
					"hidden" : 0,
					"source" : [ "obj-30", 0 ]
				}

			}
, 			{
				"patchline" : 				{
					"destination" : [ "obj-22", 0 ],
					"disabled" : 0,
					"hidden" : 0,
					"source" : [ "obj-31", 0 ]
				}

			}
, 			{
				"patchline" : 				{
					"destination" : [ "obj-34", 1 ],
					"disabled" : 0,
					"hidden" : 0,
					"source" : [ "obj-32", 0 ]
				}

			}
, 			{
				"patchline" : 				{
					"destination" : [ "obj-34", 0 ],
					"disabled" : 0,
					"hidden" : 0,
					"source" : [ "obj-33", 0 ]
				}

			}
, 			{
				"patchline" : 				{
					"destination" : [ "obj-12", 0 ],
					"disabled" : 0,
					"hidden" : 0,
					"order" : 0,
					"source" : [ "obj-34", 0 ]
				}

			}
, 			{
				"patchline" : 				{
					"destination" : [ "obj-37", 0 ],
					"disabled" : 0,
					"hidden" : 0,
					"order" : 1,
					"source" : [ "obj-34", 0 ]
				}

			}
, 			{
				"patchline" : 				{
					"destination" : [ "obj-131", 0 ],
					"disabled" : 0,
					"hidden" : 0,
					"source" : [ "obj-36", 0 ]
				}

			}
, 			{
				"patchline" : 				{
					"destination" : [ "obj-7", 0 ],
					"disabled" : 0,
					"hidden" : 0,
					"source" : [ "obj-37", 0 ]
				}

			}
, 			{
				"patchline" : 				{
					"destination" : [ "obj-36", 0 ],
					"disabled" : 0,
					"hidden" : 0,
					"source" : [ "obj-38", 0 ]
				}

			}
, 			{
				"patchline" : 				{
					"destination" : [ "obj-12", 0 ],
					"disabled" : 0,
					"hidden" : 0,
					"order" : 1,
					"source" : [ "obj-40", 0 ]
				}

			}
, 			{
				"patchline" : 				{
					"destination" : [ "obj-46", 0 ],
					"disabled" : 0,
					"hidden" : 0,
					"order" : 0,
					"source" : [ "obj-40", 0 ]
				}

			}
, 			{
				"patchline" : 				{
					"destination" : [ "obj-102", 0 ],
					"disabled" : 0,
					"hidden" : 0,
					"source" : [ "obj-41", 1 ]
				}

			}
, 			{
				"patchline" : 				{
					"destination" : [ "obj-103", 0 ],
					"disabled" : 0,
					"hidden" : 0,
					"source" : [ "obj-41", 3 ]
				}

			}
, 			{
				"patchline" : 				{
					"destination" : [ "obj-104", 0 ],
					"disabled" : 0,
					"hidden" : 0,
					"source" : [ "obj-41", 2 ]
				}

			}
, 			{
				"patchline" : 				{
					"destination" : [ "obj-95", 0 ],
					"disabled" : 0,
					"hidden" : 0,
					"source" : [ "obj-41", 0 ]
				}

			}
, 			{
				"patchline" : 				{
					"destination" : [ "obj-40", 1 ],
					"disabled" : 0,
					"hidden" : 0,
					"source" : [ "obj-42", 0 ]
				}

			}
, 			{
				"patchline" : 				{
					"destination" : [ "obj-44", 0 ],
					"disabled" : 0,
					"hidden" : 0,
					"source" : [ "obj-43", 0 ]
				}

			}
, 			{
				"patchline" : 				{
					"destination" : [ "obj-40", 0 ],
					"disabled" : 0,
					"hidden" : 0,
					"source" : [ "obj-45", 0 ]
				}

			}
, 			{
				"patchline" : 				{
					"destination" : [ "obj-10", 0 ],
					"disabled" : 0,
					"hidden" : 0,
					"source" : [ "obj-46", 0 ]
				}

			}
, 			{
				"patchline" : 				{
					"destination" : [ "obj-39", 1 ],
					"disabled" : 0,
					"hidden" : 0,
					"order" : 1,
					"source" : [ "obj-5", 1 ]
				}

			}
, 			{
				"patchline" : 				{
					"destination" : [ "obj-41", 0 ],
					"disabled" : 0,
					"hidden" : 0,
					"order" : 0,
					"source" : [ "obj-5", 1 ]
				}

			}
, 			{
				"patchline" : 				{
					"destination" : [ "obj-15", 0 ],
					"disabled" : 0,
					"hidden" : 0,
					"source" : [ "obj-53", 1 ]
				}

			}
, 			{
				"patchline" : 				{
					"destination" : [ "obj-62", 0 ],
					"disabled" : 0,
					"hidden" : 0,
					"source" : [ "obj-55", 0 ]
				}

			}
, 			{
				"patchline" : 				{
					"destination" : [ "obj-57", 0 ],
					"disabled" : 0,
					"hidden" : 0,
					"midpoints" : [ 486.166656, 752.166687, 531.166687, 752.166687 ],
					"source" : [ "obj-56", 0 ]
				}

			}
, 			{
				"patchline" : 				{
					"destination" : [ "obj-54", 0 ],
					"disabled" : 0,
					"hidden" : 0,
					"order" : 1,
					"source" : [ "obj-57", 0 ]
				}

			}
, 			{
				"patchline" : 				{
					"destination" : [ "obj-6", 0 ],
					"disabled" : 0,
					"hidden" : 0,
					"order" : 2,
					"source" : [ "obj-57", 0 ]
				}

			}
, 			{
				"patchline" : 				{
					"destination" : [ "obj-65", 0 ],
					"disabled" : 0,
					"hidden" : 0,
					"midpoints" : [ 531.166687, 821.166687, 591.166687, 821.166687 ],
					"order" : 0,
					"source" : [ "obj-57", 0 ]
				}

			}
, 			{
				"patchline" : 				{
					"destination" : [ "obj-57", 1 ],
					"disabled" : 0,
					"hidden" : 0,
					"source" : [ "obj-58", 0 ]
				}

			}
, 			{
				"patchline" : 				{
					"destination" : [ "obj-65", 0 ],
					"disabled" : 0,
					"hidden" : 0,
					"source" : [ "obj-59", 0 ]
				}

			}
, 			{
				"patchline" : 				{
					"destination" : [ "obj-2", 0 ],
					"disabled" : 0,
					"hidden" : 0,
					"source" : [ "obj-6", 0 ]
				}

			}
, 			{
				"patchline" : 				{
					"destination" : [ "obj-19", 0 ],
					"disabled" : 0,
					"hidden" : 0,
					"midpoints" : [ 559.666687, 746.166687, 591.166687, 746.166687 ],
					"source" : [ "obj-60", 1 ]
				}

			}
, 			{
				"patchline" : 				{
					"destination" : [ "obj-58", 0 ],
					"disabled" : 0,
					"hidden" : 0,
					"source" : [ "obj-60", 0 ]
				}

			}
, 			{
				"patchline" : 				{
					"destination" : [ "obj-64", 0 ],
					"disabled" : 0,
					"hidden" : 0,
					"source" : [ "obj-62", 1 ]
				}

			}
, 			{
				"patchline" : 				{
					"destination" : [ "obj-65", 0 ],
					"disabled" : 0,
					"hidden" : 0,
					"midpoints" : [ 696.166687, 821.166687, 591.166687, 821.166687 ],
					"source" : [ "obj-62", 0 ]
				}

			}
, 			{
				"patchline" : 				{
					"destination" : [ "obj-17", 0 ],
					"disabled" : 0,
					"hidden" : 0,
					"midpoints" : [ 499.666656, 678.666687, 546.166687, 678.666687 ],
					"source" : [ "obj-63", 1 ]
				}

			}
, 			{
				"patchline" : 				{
					"destination" : [ "obj-56", 0 ],
					"disabled" : 0,
					"hidden" : 0,
					"source" : [ "obj-63", 0 ]
				}

			}
, 			{
				"patchline" : 				{
					"destination" : [ "obj-65", 0 ],
					"disabled" : 0,
					"hidden" : 0,
					"midpoints" : [ 711.166687, 835.166687, 591.166687, 835.166687 ],
					"source" : [ "obj-64", 0 ]
				}

			}
, 			{
				"patchline" : 				{
					"destination" : [ "obj-32", 0 ],
					"disabled" : 0,
					"hidden" : 0,
					"source" : [ "obj-7", 0 ]
				}

			}
, 			{
				"patchline" : 				{
					"destination" : [ "obj-21", 0 ],
					"disabled" : 0,
					"hidden" : 0,
					"order" : 0,
					"source" : [ "obj-8", 1 ]
				}

			}
, 			{
				"patchline" : 				{
					"destination" : [ "obj-27", 0 ],
					"disabled" : 0,
					"hidden" : 0,
					"order" : 1,
					"source" : [ "obj-8", 1 ]
				}

			}
, 			{
				"patchline" : 				{
					"destination" : [ "obj-2", 1 ],
					"disabled" : 0,
					"hidden" : 0,
					"source" : [ "obj-9", 0 ]
				}

			}
, 			{
				"patchline" : 				{
					"destination" : [ "obj-38", 0 ],
					"disabled" : 0,
					"hidden" : 0,
					"midpoints" : [ 1006.833374, 409.5, 942.5, 409.5 ],
					"source" : [ "obj-95", 0 ]
				}

			}
 ],
		"dependency_cache" : [ 			{
				"name" : "samplervoice~.maxpat",
				"bootpath" : "C74:/docs/tutorial-patchers/msp-tut",
				"type" : "JSON",
				"implicit" : 1
			}
 ],
		"autosave" : 0
	}

}
